<?xml version="1.0" encoding="UTF-8" standalone="no"?>
<!-- Created with Inkscape (http://www.inkscape.org/) -->

<svg
   xmlns:dc="http://purl.org/dc/elements/1.1/"
   xmlns:cc="http://creativecommons.org/ns#"
   xmlns:rdf="http://www.w3.org/1999/02/22-rdf-syntax-ns#"
   xmlns:svg="http://www.w3.org/2000/svg"
   xmlns="http://www.w3.org/2000/svg"
   xmlns:sodipodi="http://sodipodi.sourceforge.net/DTD/sodipodi-0.dtd"
   xmlns:inkscape="http://www.inkscape.org/namespaces/inkscape"
   version="1.1"
   width="125"
   height="125"
   id="svg2"
   inkscape:version="0.48.4 r9939"
   sodipodi:docname="logo.svg">
  <sodipodi:namedview
     pagecolor="#ffffff"
     bordercolor="#666666"
     borderopacity="1"
     objecttolerance="10"
     gridtolerance="10"
     guidetolerance="10"
     inkscape:pageopacity="0"
     inkscape:pageshadow="2"
     inkscape:window-width="1680"
     inkscape:window-height="998"
     id="namedview3003"
     showgrid="false"
     inkscape:zoom="2.840463"
     inkscape:cx="135.86222"
     inkscape:cy="90.228438"
     inkscape:window-x="-8"
     inkscape:window-y="-8"
     inkscape:window-maximized="1"
     inkscape:current-layer="layer1" />
  <defs
     id="defs4" />
  <metadata
     id="metadata7">
    <rdf:RDF>
      <cc:Work
         rdf:about="">
        <dc:format>image/svg+xml</dc:format>
        <dc:type
           rdf:resource="http://purl.org/dc/dcmitype/StillImage" />
        <dc:title />
      </cc:Work>
    </rdf:RDF>
  </metadata>
  <g
     transform="translate(0,-927.36218)"
     id="layer1">
    <rect
       style="fill:#ff0000;fill-opacity:1;stroke:#000000;stroke-opacity:0"
       id="rect3011"
       width="20.419207"
       height="101.39192"
       x="17.954819"
       y="937.59216" />
    <rect
       style="fill:#ff0000;fill-opacity:1;stroke:#000000;stroke-width:1.08039355;stroke-opacity:0"
       id="rect3013"
       width="66.810112"
       height="22.451145"
       x="40.174496"
       y="937.98444"
       ry="0" />
    <rect
       style="fill:#ff0000;fill-opacity:1;stroke:#000000;stroke-width:1.14911926;stroke-opacity:0"
       id="rect3013-7"
       width="75.580276"
       height="22.451145"
       x="45.448208"
       y="1003.6594"
       ry="0"
       transform="matrix(0.88396227,-0.46755824,0,1,0,0)" />
    <rect
       style="fill:#ff0000;fill-opacity:1;stroke:#000000;stroke-width:1.14667284;stroke-opacity:0"
       id="rect3013-4"
       width="75.258797"
       height="22.451145"
       x="45.25489"
       y="968.83154"
       ry="0"
       transform="matrix(0.88773827,0.46034853,0,1,0,0)" />
    <path
       style="fill:#ff6600;fill-opacity:1;stroke:#000000;stroke-width:0.35205528;stroke-opacity:0"
       d="m 18.275756,61.070092 0,-50.519933 10.033576,0 10.033575,0 0,50.519933 0,50.519928 -10.033575,0 -10.033576,0 0,-50.519928 z"
       id="path3064"
       inkscape:connector-curvature="0"
       transform="translate(0,927.36218)" />
    <path
       style="fill:#ff0000;fill-opacity:1;stroke:#000000;stroke-width:0.35205528000000003;stroke-opacity:0"
       d="m 73.460421,101.81224 -33.005182,-17.138869 0.0059,-14.79411 0.0059,-14.794109 20.593112,-10.865388 C 72.386309,38.243801 81.740082,33.213811 81.846262,33.042009 81.957779,32.86157 73.257825,32.729642 61.247278,32.729642 l -20.792039,0 0,-10.913714 0,-10.913714 33.042558,0 33.042563,0 0.25241,7.709353 c 0.13883,4.240145 0.13891,11.273293 1.6e-4,15.629219 l -0.25225,7.919866 -25.862513,13.679384 c -14.224379,7.523661 -25.821061,13.837808 -25.770402,14.031438 0.05066,0.19363 11.709971,6.372201 25.90958,13.730156 l 25.817475,13.378101 0.004,11.001729 c 0.002,6.05095 -0.0362,10.99451 -0.0846,10.98569 -0.0484,-0.009 -14.940345,-7.72854 -33.093196,-17.15491 l -1.13e-4,0 z"
       id="path3066"
       inkscape:connector-curvature="0"
       transform="translate(0,927.36218)" />
    <path
       style="fill:#ff0000;fill-opacity:1;stroke:#000000;stroke-width:0.35205528000000003;stroke-opacity:0"
       d="m 18.275756,61.070092 0,-50.519933 10.033576,0 10.033575,0 0,50.519933 0,50.519928 -10.033575,0 -10.033576,0 0,-50.519928 z"
       id="path3068"
       inkscape:connector-curvature="0"
       transform="translate(0,927.36218)" />
  </g>
</svg>
